PathFileType	4	(X/Y/Z)	OpenSim_Sub06_CSStiffKnee_Gyro.trc
DataRate	CameraRate	NumFrames	NumMarkers	Units	OrigDataRate	OrigDataStartFrame	OrigNumFrames
100	100	38	8	m	100	1	7164
Frame#	Time	torso_imu_offset_imu	pelvis_imu_offset_imu	tibia_r_imu_offset_imu	femur_r_imu_offset_imu	tibia_l_imu_offset_imu	femur_l_imu_offset_imu	toes_r_imu_offset_imu	toes_l_imu_offset_imu
				X1	Y1	Z1	X2	Y2	Z2	X3	Y3	Z3	X4	Y4	Z4	X5	Y5	Z5	X6	Y6	Z6	X7	Y7	Z7	X8		Y8	Z8	

1	0	-0.00809235	-0.02493308	-0.01146293	-0.00543304	0.01004981	-0.01068578	-0.02455569	0.00676493	0.01067881	-0.02478162	0.02847726	0.00823292	0.01515444	-0.00163439	-0.00480688	-0.00704646	-0.01171024	-0.00568375	0.00046182	0.00786245	0.00618122	-0.00583375	0.01566808	-0.00019355
2	0.01000000	-0.01275710	-0.02240861	-0.01100399	-0.00308920	0.00511813	-0.01206527	-0.02992810	0.00625901	0.00916386	-0.01875361	0.02576608	0.00661349	0.01796944	0.00350982	-0.00675158	-0.00875912	-0.01092998	0.00254988	-0.00162811	0.01292408	0.00317657	-0.00529190	0.01528559	0.00047850
3	0.02000000	-0.00417070	-0.02432201	-0.01043034	-0.00091645	0.00414711	-0.01156790	-0.02858781	0.00424651	0.01089714	-0.01198903	0.01972583	0.00936063	0.01287266	0.00399668	-0.00712361	-0.00169630	-0.00836892	0.00220271	-0.00014284	0.01226399	0.00650900	-0.00431062	0.01585207	-0.00113504
4	0.03000000	-0.00271652	-0.02278807	-0.00779727	0.00070741	0.00345148	-0.00932357	-0.02356955	0.00184049	0.00794359	-0.00718887	0.01945850	0.01005284	0.00917090	0.00418004	-0.00772740	0.00018943	-0.00708901	0.00039077	-0.00349256	0.01150164	0.00530784	-0.00545183	0.01623052	-0.00068705
5	0.04000000	-0.00395722	-0.01437433	-0.00449114	0.00464550	0.00190604	-0.00750814	-0.01181576	-0.00158130	0.00925448	-0.00269761	0.01730352	0.01268258	0.00441652	0.00716187	-0.01023900	-0.00285957	0.00270469	-0.00147636	0.00053841	0.01307730	0.00626508	-0.00684723	0.01435007	-0.00191919
6	0.05000000	-0.01015898	-0.01135022	0.00113658	0.00628053	-0.00221888	-0.00730916	-0.01040792	-0.00080250	0.01204964	-0.00423125	0.02170565	0.01198556	0.00289263	0.00707432	-0.01023863	-0.00523638	0.00192392	-0.00634542	-0.00047127	0.01108276	0.00750363	-0.00814628	0.01593805	-0.00114989
7	0.06000000	-0.01070010	-0.00913747	0.00704433	0.01019488	-0.00067481	-0.00836165	-0.00861916	-0.00067481	0.00908253	-0.00418146	0.02468536	0.00992710	0.00194622	0.00692473	-0.00811596	-0.00292687	-0.00325801	-0.00511742	-0.00499020	0.01421307	0.00796067	-0.00622648	0.01399191	0.00404677
8	0.07000000	-0.01529611	-0.00261493	0.01129767	0.01237126	-0.00072262	-0.00708242	-0.00302696	-0.00358259	0.00833718	0.00265851	0.01843834	0.00539960	0.00866095	0.01323828	-0.00696263	0.00191730	-0.00185076	-0.00710365	-0.00254783	0.01401614	0.01076605	-0.00896619	0.01481017	0.00147477
9	0.08000000	-0.00901011	-0.00036967	0.01554033	0.02106266	-0.00122453	-0.00630821	0.00050820	0.00005667	0.00776673	0.00417248	0.01081852	0.01168399	0.02507285	0.00970151	-0.00468127	0.00101151	-0.00145592	-0.00745719	-0.00560538	0.01547710	0.01334385	-0.01009393	0.01525704	0.00219053
10	0.09000000	-0.01725416	0.00132395	0.01647300	0.02791546	-0.00309133	-0.00299896	-0.00234299	-0.00157457	0.00824513	0.00178983	0.01270445	0.00969498	0.02868433	0.00897359	-0.00377578	0.00944610	-0.00336770	-0.01077126	-0.00370920	0.01673704	0.01219639	-0.00791921	0.01388821	0.00418666
11	0.10000000	-0.01306858	0.00324266	0.01981531	0.03133486	-0.00360919	-0.00359916	0.00149062	-0.00365583	0.00757467	0.00369725	0.01317550	0.00498762	0.03513600	0.01318579	-0.00037687	0.01903984	0.00370252	-0.01203956	-0.00419082	0.01608203	0.01490624	-0.01064603	0.01485490	0.00492950
12	0.11000000	-0.00581356	-0.00020759	0.02240668	0.03403577	-0.00570923	0.00036783	0.00629188	-0.00447174	0.00678033	0.00628869	0.00934945	0.00657284	0.04059706	0.01305606	-0.00149398	0.02018753	0.00959378	-0.01324221	-0.00417226	0.01816819	0.01321207	-0.01183512	0.01917123	0.00496651
13	0.12000000	-0.00580643	-0.00276716	0.01759047	0.03650648	-0.00927479	0.00166441	-0.00014046	-0.00550837	0.00804953	0.00530813	0.00549938	0.00649374	0.04207420	0.01438629	-0.00115623	0.02411592	0.01284329	-0.01344163	0.00103231	0.01765807	0.01335803	-0.01171692	0.01892868	0.00334376
14	0.13000000	-0.00265646	-0.00130671	0.01523069	0.03743520	-0.00923511	0.00722364	-0.00004304	-0.00719719	0.00969242	0.00629291	-0.00108839	0.00956219	0.03807369	0.01780907	-0.00227863	0.02901353	0.01276038	-0.01249670	0.00422098	0.01779553	0.01238574	-0.01349000	0.02094969	0.00296196
15	0.14000000	-0.00698697	-0.00151105	0.01704815	0.03502302	-0.00762037	0.00744127	-0.00435275	-0.00656193	0.01049948	0.01040632	-0.00308089	0.01261433	0.03139116	0.01861870	-0.00125889	0.02911294	0.01180654	-0.01039721	0.00430457	0.01526784	0.01079322	-0.01259016	0.02349936	0.00371749
16	0.15000000	-0.00539417	-0.00015290	0.02050808	0.03486900	-0.01177939	0.00922887	-0.01619544	-0.00896834	0.00853248	0.01540725	-0.00383530	0.00844785	0.03774484	0.02049466	-0.00290298	0.03164923	0.01166922	-0.00242098	0.00728781	0.01450546	0.01231451	-0.01015094	0.02610931	-0.00288839
17	0.16000000	-0.00910810	0.01003905	0.02237215	0.03435289	-0.00977657	0.01088914	-0.01928396	-0.00974617	0.01150870	0.02022535	-0.00439051	0.01322388	0.04369157	0.02023796	-0.00369066	0.03530162	0.01765230	-0.00295332	0.00764946	0.01768754	0.01324248	-0.01512409	0.02514897	0.00091600
18	0.17000000	-0.00881179	0.00941652	0.01888393	0.02960460	-0.01222275	0.01513225	-0.01699167	-0.01145133	0.00623328	0.02127013	-0.00426925	0.00747302	0.04609838	0.02093085	-0.00023379	0.03552886	0.01326113	0.00316255	0.00898808	0.01772392	0.01729506	-0.01379845	0.02656524	-0.00225892
19	0.18000000	-0.00033767	0.00929350	0.01630125	0.02831606	-0.00854935	0.01182160	-0.01874519	-0.01492380	0.00884337	0.02548751	-0.00579008	0.00902550	0.05063777	0.02131799	-0.00115671	0.02913349	0.01236394	0.00469288	0.00597919	0.01608925	0.01392555	-0.01300930	0.03080198	0.00029989
20	0.19000000	-0.00046265	0.01319718	0.01448445	0.02446104	-0.01049137	0.01354688	-0.02031133	-0.01764416	0.00751514	0.02364672	-0.01015399	0.00563957	0.05155478	0.02270869	-0.00347444	0.02027683	0.00897313	0.00600425	0.00853768	0.01791698	0.01594677	-0.01361392	0.03180117	0.00088056
21	0.20000000	-0.00083389	0.01805656	0.01251731	0.02195658	-0.01254652	0.01807495	-0.01868754	-0.01883474	0.00770850	0.02087003	-0.00979030	0.00581888	0.05831735	0.02510357	-0.00129417	0.01535724	0.00611403	0.00879225	0.00281889	0.01580417	0.01832827	-0.01313131	0.03462933	0.00180791
22	0.21000000	0.00272312	0.01810553	0.01008807	0.02042413	-0.01028519	0.01902105	-0.01440525	-0.01769347	0.00920048	0.01924054	-0.00650118	0.00458835	0.06409367	0.02805986	0.00030264	0.01895596	0.00298896	0.00614100	0.00241789	0.01625170	0.01866914	-0.01373034	0.03828675	0.00429445
23	0.22000000	0.00207698	0.02111505	0.00625421	0.02329320	-0.01166368	0.01646409	-0.02232201	-0.02129633	0.00554740	0.02164846	-0.01112589	0.00658966	0.06198951	0.02626493	0.00064055	0.02130347	0.00119982	0.00469752	0.00489663	0.01584780	0.01730891	-0.01704014	0.03631146	0.00368088
24	0.23000000	0.00572868	0.02159230	0.00578126	0.02206785	-0.01359962	0.02426316	-0.03256359	-0.02462790	0.00701469	0.02462555	-0.00644091	0.00846457	0.05912867	0.02696066	-0.00085549	0.02856974	0.00248662	0.00406482	0.00197407	0.01394901	0.01779433	-0.01315442	0.03578449	0.00392315
25	0.24000000	0.01425481	0.01890157	-0.00175516	0.01949817	-0.01119780	0.02366068	-0.03432972	-0.02488456	0.00302255	0.00985678	-0.00417819	0.00484503	0.07110977	0.03256751	-0.00009562	0.03250534	0.01366046	0.00031911	-0.00182966	0.01368612	0.01930912	-0.01870881	0.03866909	0.00433196
26	0.25000000	0.01501555	0.02288692	-0.00192452	0.02814507	-0.00970634	0.02101595	-0.04354285	-0.02636324	0.00231017	0.00586220	-0.00443753	0.00879032	0.07265443	0.03017634	0.00373882	0.02724444	0.01469745	-0.00087098	0.00224887	0.01384829	0.01810614	-0.01573873	0.03555733	0.00737756
27	0.26000000	0.01734644	0.02400658	-0.00627528	0.02872045	-0.01246444	0.02622348	-0.04445072	-0.02923490	0.00072326	0.00345519	-0.00803129	0.00934423	0.06846435	0.03171916	0.00206105	0.02450281	0.01481523	-0.00085036	0.00023813	0.00999466	0.02033169	-0.01528637	0.03698388	0.00682688
28	0.27000000	0.02021561	0.02195843	-0.00813911	0.02729647	-0.01330943	0.02782075	-0.04000487	-0.03173443	0.00192211	-0.00042461	-0.00688861	0.01042884	0.05964843	0.03500658	0.00027474	0.02258113	0.01498696	-0.00176157	-0.00148398	0.00980014	0.02256742	-0.01803367	0.03506297	0.00729375
29	0.28000000	0.02010921	0.02566144	-0.01361234	0.02766291	-0.01114852	0.03050532	-0.03689930	-0.02993201	-0.00008670	0.00040146	-0.00532345	0.01057300	0.05195681	0.03576305	0.00053459	0.02797116	0.01757712	-0.00488847	-0.00519707	0.00742074	0.02139967	-0.01277133	0.03095394	0.00904791
30	0.29000000	0.02425749	0.02793399	-0.01736398	0.02711767	-0.01090453	0.02919508	-0.03034725	-0.02600652	0.00165474	0.00218257	-0.00717957	0.00919858	0.04255078	0.03726079	-0.00123676	0.02734905	0.02675301	-0.00496047	-0.00737828	0.00409240	0.02263615	-0.01639919	0.02757044	0.00917539
31	0.30000000	0.02586099	0.02564518	-0.02304667	0.02510244	-0.00934869	0.02681313	-0.02083227	-0.02807136	0.00183314	0.00629811	-0.00759938	0.00197485	0.03699505	0.03987477	-0.00298877	0.02691813	0.02772606	-0.01001117	-0.00808271	0.00372949	0.02493746	-0.01642644	0.02549075	0.01032874
32	0.31000000	0.03300867	0.03201276	-0.02457062	0.01997628	-0.01054898	0.02535670	-0.00059639	-0.03123681	0.00626978	0.00976317	-0.00995959	0.00620853	0.03547888	0.03735565	0.00093279	0.02999508	0.02753345	-0.01308538	-0.00796311	-0.00023683	0.02108170	-0.01061052	0.02539630	0.00834715
33	0.32000000	0.03512202	0.02862841	-0.02814081	0.01537892	-0.01113536	0.02461127	0.00739750	-0.03100962	0.01174771	0.01430228	-0.00466651	0.00427449	0.03141081	0.03840636	-0.00081996	0.03020108	0.02817512	-0.01611703	-0.01197469	-0.00120435	0.02534199	-0.01740988	0.02344854	0.00861451
34	0.33000000	0.03925791	0.03054058	-0.03330135	0.01691471	-0.00860938	0.02540208	0.01082767	-0.03863474	0.00946804	0.00974650	0.00416872	-0.00143525	0.03362106	0.04332457	0.00816101	0.03220979	0.02852527	-0.02067058	-0.01337205	-0.00129387	0.02773119	-0.01848002	0.02427361	0.01121864
35	0.34000000	0.04302111	0.03286541	-0.03695455	0.01382266	-0.00519538	0.02186967	-0.00060704	-0.04184207	0.01202897	-0.00208021	0.00270438	-0.00307822	0.03257285	0.03931761	0.00820387	0.02304442	0.02673111	-0.02333093	-0.01386953	-0.00348482	0.03081887	-0.01850717	0.01989405	0.00925137
36	0.35000000	0.04751390	0.03205151	-0.04243213	0.01183914	-0.00263889	0.02046990	0.00044321	-0.03470129	0.01182760	-0.00514099	0.00049929	-0.00087022	0.03514478	0.03987991	0.01279763	0.02177703	0.02429868	-0.02751893	-0.01586198	-0.00267859	0.03181060	-0.01958813	0.02085364	0.01170632
37	0.36000000	0.05114441	0.03770286	-0.04669654	0.01073280	-0.00294859	0.01773757	0.01050673	-0.03388521	0.01307393	-0.01077330	-0.00216796	0.00042431	0.03061139	0.04000150	0.01319699	0.01801725	0.02445760	-0.02847090	-0.01447778	-0.00224756	0.02931937	-0.01786596	0.02057561	0.01046028
38	0.37000000	0.05306664	0.04529670	-0.04663827	0.00844362	-0.00514987	0.01347898	0.00995379	-0.02668096	0.01378097	-0.01501237	-0.00101955	0.00248673	0.02741957	0.03936517	0.01222628	0.01726967	0.02545217	-0.02822009	-0.01487488	-0.00319473	0.02858719	-0.02207099	0.02023211	0.01195539
